HIERARCHY
ROOT root
{
	OFFSET 0.000000 0.000000 0.000000
	CHANNELS 6 Xposition Yposition Zposition Zrotation Yrotation Xrotation
	JOINT lhip
	{
		OFFSET 0.058581 -0.082280 -0.017664
		CHANNELS 3 Zrotation Yrotation Xrotation
		JOINT lknee
		{
			OFFSET 0.043451 -0.386469 0.008037
			CHANNELS 3 Zrotation Yrotation Xrotation
			JOINT lankle
			{
				OFFSET -0.014790 -0.426874 -0.037428
				CHANNELS 3 Zrotation Yrotation Xrotation
				JOINT ltoe
				{
					OFFSET 0.041054 -0.060286 0.122042
					CHANNELS 3 Zrotation Yrotation Xrotation
					End Site
					{
						OFFSET 0.000000 0.000000 0.000000
					}
				}
			}
		}
	}
	JOINT rhip
	{
		OFFSET -0.060310 -0.090513 -0.013543
		CHANNELS 3 Zrotation Yrotation Xrotation
		JOINT rknee
		{
			OFFSET -0.043257 -0.383688 -0.004843
			CHANNELS 3 Zrotation Yrotation Xrotation
			JOINT rankle
			{
				OFFSET 0.019056 -0.420046 -0.034562
				CHANNELS 3 Zrotation Yrotation Xrotation
				JOINT rtoe
				{
					OFFSET -0.034840 -0.062106 0.130323
					CHANNELS 3 Zrotation Yrotation Xrotation
					End Site
					{
						OFFSET 0.000000 0.000000 0.000000
					}
				}
			}
		}
	}
	JOINT lowerback
	{
		OFFSET 0.004439 0.124404 -0.038385
		CHANNELS 3 Zrotation Yrotation Xrotation
		JOINT upperback
		{
			OFFSET 0.004488 0.137956 0.026820
			CHANNELS 3 Zrotation Yrotation Xrotation
			JOINT chest
			{
				OFFSET -0.002265 0.056032 0.002855
				CHANNELS 3 Zrotation Yrotation Xrotation
				JOINT lowerneck
				{
					OFFSET -0.013390 0.211636 -0.033468
					CHANNELS 3 Zrotation Yrotation Xrotation
					JOINT upperneck
					{
						OFFSET 0.010113 0.088937 0.050410
						CHANNELS 3 Zrotation Yrotation Xrotation
						End Site
						{
							OFFSET 0.000000 0.000000 0.000000
						}
					}
				}
				JOINT lclavicle
				{
					OFFSET 0.071702 0.114000 -0.018898
					CHANNELS 3 Zrotation Yrotation Xrotation
					JOINT lshoulder
					{
						OFFSET 0.122921 0.045205 -0.019046
						CHANNELS 3 Zrotation Yrotation Xrotation
						JOINT lelbow
						{
							OFFSET 0.255332 -0.015649 -0.022946
							CHANNELS 3 Zrotation Yrotation Xrotation
							JOINT lwrist
							{
								OFFSET 0.265709 0.012698 -0.007375
								CHANNELS 3 Zrotation Yrotation Xrotation
								End Site
								{
									OFFSET 0.000000 0.000000 0.000000
								}
							}
						}
					}
				}
				JOINT rclavicle
				{
					OFFSET -0.082954 0.112472 -0.023707
					CHANNELS 3 Zrotation Yrotation Xrotation
					JOINT rshoulder
					{
						OFFSET -0.113228 0.046853 -0.008472
						CHANNELS 3 Zrotation Yrotation Xrotation
						JOINT relbow
						{
							OFFSET -0.260127 -0.014369 -0.031269
							CHANNELS 3 Zrotation Yrotation Xrotation
							JOINT rwrist
							{
								OFFSET -0.269108 0.006794 -0.006027
								CHANNELS 3 Zrotation Yrotation Xrotation
								End Site
								{
									OFFSET 0.000000 0.000000 0.000000
								}
							}
						}
					}
				}
			}
		}
	}
}
MOTION
Frames: 5
Frame Time: 0.033333
-0.106208 0.147307 0.867803 0.868331 4.283400 93.023074 9.125252 3.628668 -41.413707 -6.031916 11.228971 52.311833 8.379970 17.675196 -29.670511 0.000000 -0.000000 0.000000 -6.605201 -4.574872 -46.737452 -2.895550 -16.268644 63.837112 2.644593 -12.449627 -19.715900 0.000000 -0.000000 0.000000 -2.464012 1.916660 53.980580 -2.613816 -2.356478 9.571607 0.087440 -0.147830 -0.255370 -13.103863 18.114192 -2.932130 -2.976710 12.099425 -24.620742 -20.159084 -7.260575 2.877212 -49.616082 -9.075275 9.447762 49.851154 -62.083843 -36.123646 3.110315 -9.924686 -9.149449 27.433976 14.182942 10.025632 52.328635 8.120970 5.447020 -39.372319 58.641332 -22.343505 -6.336019 9.247225 -11.960231 
-0.105542 0.147793 0.868901 0.962960 4.132451 93.209631 8.963298 3.810751 -41.361305 -6.206381 11.417396 51.799996 8.442439 17.473437 -29.514991 0.000000 -0.000000 0.000000 -7.044301 -4.983791 -46.974971 -3.109888 -16.589654 65.288208 2.691081 -12.844692 -20.093643 0.000000 -0.000000 0.000000 -2.389354 1.773817 54.170801 -2.624226 -2.319993 9.424039 0.050665 -0.124842 -0.147615 -12.897732 17.843928 -2.898793 -2.695321 11.786585 -24.623889 -20.028006 -7.163884 2.807752 -49.525571 -9.274973 9.380131 51.278593 -62.477322 -37.599419 3.395816 -9.894890 -9.489300 27.450405 13.960867 9.944731 52.571959 8.008545 5.340462 -40.001224 58.987926 -22.889221 -6.534056 9.197623 -11.974132 
-0.105567 0.148342 0.868636 1.085370 3.835029 93.405266 8.750294 3.880688 -41.518322 -6.376352 11.660474 51.638819 8.484317 17.354843 -29.467614 0.000000 -0.000000 0.000000 -7.313687 -5.654181 -47.127734 -4.505025 -17.219170 67.703680 1.881803 -14.471757 -19.342115 0.000000 -0.000000 0.000000 -2.326231 1.731334 54.332306 -2.514043 -2.195138 9.422825 0.060253 -0.086283 -0.178066 -12.271984 16.945205 -2.857545 -1.895365 10.689010 -24.603043 -20.017345 -7.025090 2.820077 -49.300365 -9.469585 9.317733 52.820217 -63.082267 -39.143873 3.748378 -9.901631 -9.618463 27.559238 13.823308 9.915128 52.635285 7.574474 5.125180 -40.824140 59.415747 -23.652256 -6.812788 9.163515 -12.071593 
-0.106188 0.148850 0.867117 1.136072 3.555774 93.565678 8.647174 3.844916 -41.806781 -6.338417 12.048323 51.803611 8.522595 17.235135 -29.564768 0.000000 -0.000000 0.000000 -7.330676 -6.062776 -46.836491 -5.650611 -17.636531 69.326596 1.230305 -15.366598 -17.499534 0.000000 -0.000000 0.000000 -2.236285 1.869025 54.474086 -2.181056 -2.008875 9.461224 0.093068 -0.052058 -0.290502 -10.799648 14.446609 -2.768714 0.473361 7.762752 -24.602246 -20.056575 -6.692900 2.974104 -49.185820 -9.763231 9.395877 54.238582 -63.604430 -40.632113 4.039886 -10.046952 -9.468626 27.786015 13.737998 9.908483 52.357322 7.108717 4.737916 -41.236746 59.791417 -24.068403 -7.066574 9.211582 -11.919232 
-0.107448 0.149284 0.864861 1.084164 3.473579 93.479549 8.726681 3.946068 -42.058810 -6.227033 12.237240 52.421933 8.216140 17.082245 -29.848073 0.000000 -0.000000 0.000000 -6.842606 -6.073686 -45.547036 -5.677845 -17.651161 67.805424 1.166627 -15.843521 -19.198967 0.000000 -0.000000 0.000000 -2.077630 2.197733 54.517635 -1.761949 -1.894118 9.739661 0.320166 0.004834 -0.396728 -8.121625 10.230640 -2.407932 4.216819 3.481489 -24.658309 -20.280799 -6.358586 3.425560 -49.001656 -10.139266 9.415286 55.372596 -63.857614 -42.310313 4.139168 -10.283746 -8.991393 28.031745 14.129290 9.867710 51.795306 6.633847 4.331872 -41.199679 59.660992 -24.207336 -7.275441 9.397543 -11.699915 
